/* XPM */
static char *SlackBuilder[]={
"32 32 9 1",
"f c #008000",
"g c #00c000",
"e c #00ff00",
"d c #303030",
"b c #808080",
"c c #c0ffc0",
"a c #c3c3c3",
"# c #ff0000",
". c #ffffff",
"................................",
"..........###a....aaaaaaa.......",
"..b.......###a......aaa...b.....",
"..b.......###a......aaa...b.....",
"..bbbbbbbb###abbbbbbbbbbbbb.....",
"..bbbbbbbb###abbbbbbbbbbbbb.....",
"..bbbbbbbb###abbbbbbbbbbbbb.....",
"..b.......###a......aaa...b.....",
"..b.......###a......aaa...b.....",
"aaaaaaa...###a......aaa.........",
"..aaa.....###a......aaa.........",
"..aaa.....###a....ccaaa..bbbbbbb",
"..aaa.....###a..ccccaaacc..bbb..",
"..aaa.....###accccccaaaccc.bbb..",
"..aaa.....###addddddaaaaaccbbb..",
"..aaa.....#############....bbb..",
"..aaa.....#############....bbb..",
"..aaa.....#####aaaaaa##a...bbb..",
"..aaa.....#####......##a...bbb..",
"..aaa.....####a......##a...bbb..",
"..aaa.....####a......##a...bbb..",
"eeaaaeeee.####a......##a...bbb..",
"eeaaaeeee.#############a...bbb..",
"eeaaaeeee.#############a...bbb..",
"aaaaaaaeee#############..ffbbb..",
"eeeeeeeeeee............ffffbbbff",
"......................fffffbbbff",
"......................ffffbbbbbb",
"gggggggggggggggggggggggggggggggg",
"gggggggggggggggggggggggggggggggg",
"gggggggggggggggggggggggggggggggg",
"gggggggggggggggggggggggggggggggg"};
